<mxfile host="app.diagrams.net" modified="2022-07-12T06:27:24.114Z" agent="5.0 (Windows NT 10.0; Win64; x64) AppleWebKit/537.36 (KHTML, like Gecko) Chrome/103.0.0.0 Safari/537.36" etag="SPwJi0n9uqFD-SOfU-uh" version="20.0.1" type="github">
  <diagram id="yDOsWjbIo239kXgjwHGW" name="Page-1">
    <mxGraphModel dx="782" dy="460" grid="1" gridSize="10" guides="1" tooltips="1" connect="1" arrows="1" fold="1" page="1" pageScale="1" pageWidth="827" pageHeight="1169" math="0" shadow="0">
      <root>
        <mxCell id="0" />
        <mxCell id="1" parent="0" />
        <UserObject label="&lt;font style=&quot;font-size: 24px;&quot;&gt;ユーザー&lt;/font&gt;" name="Edward Morrison" position="Brand Manager" location="Office 2" email="me@example.com" placeholders="1" link="https://www.draw.io" id="MHfgRp8hCxY6G898PhNS-2">
          <mxCell style="label;image=https://cdn3.iconfinder.com/data/icons/user-avatars-1/512/users-10-3-128.png;whiteSpace=wrap;html=1;rounded=1;fillColor=#d5e8d4;strokeColor=#82b366;" vertex="1" parent="1">
            <mxGeometry x="110" y="205" width="168" height="78" as="geometry" />
          </mxCell>
        </UserObject>
        <UserObject label="&lt;font style=&quot;font-size: 24px;&quot;&gt;オーナー&lt;/font&gt;" name="Evan Valet" position="HR Director" location="Office 4" email="me@example.com" placeholders="1" link="https://www.draw.io" id="MHfgRp8hCxY6G898PhNS-4">
          <mxCell style="label;image=https://cdn3.iconfinder.com/data/icons/user-avatars-1/512/users-9-2-128.png;whiteSpace=wrap;html=1;rounded=1;fillColor=#d5e8d4;strokeColor=#82b366;" vertex="1" parent="1">
            <mxGeometry x="550" y="205" width="168" height="78" as="geometry" />
          </mxCell>
        </UserObject>
        <mxCell id="MHfgRp8hCxY6G898PhNS-10" value="" style="shape=image;html=1;verticalAlign=top;verticalLabelPosition=bottom;labelBackgroundColor=#ffffff;imageAspect=0;aspect=fixed;image=https://cdn1.iconfinder.com/data/icons/general-9/500/phone-128.png" vertex="1" parent="1">
          <mxGeometry x="350" y="180" width="128" height="128" as="geometry" />
        </mxCell>
        <mxCell id="MHfgRp8hCxY6G898PhNS-14" value="" style="outlineConnect=0;dashed=0;verticalLabelPosition=bottom;verticalAlign=top;align=center;html=1;shape=mxgraph.aws3.data_encryption_key;fillColor=#7D7C7C;gradientColor=none;" vertex="1" parent="1">
          <mxGeometry x="368" y="40" width="90.25" height="110" as="geometry" />
        </mxCell>
        <mxCell id="MHfgRp8hCxY6G898PhNS-15" value="&lt;b&gt;iOS/Android&lt;br&gt;アプリ&lt;/b&gt;" style="text;html=1;align=center;verticalAlign=middle;resizable=0;points=[];autosize=1;strokeColor=none;fillColor=none;fontSize=24;" vertex="1" parent="1">
          <mxGeometry x="334" y="290" width="160" height="60" as="geometry" />
        </mxCell>
        <mxCell id="MHfgRp8hCxY6G898PhNS-20" value="" style="shape=flexArrow;endArrow=classic;html=1;rounded=0;fontSize=24;exitX=1;exitY=0.5;exitDx=0;exitDy=0;entryX=0.313;entryY=0.5;entryDx=0;entryDy=0;entryPerimeter=0;" edge="1" parent="1" source="MHfgRp8hCxY6G898PhNS-2" target="MHfgRp8hCxY6G898PhNS-10">
          <mxGeometry width="50" height="50" relative="1" as="geometry">
            <mxPoint x="360" y="150" as="sourcePoint" />
            <mxPoint x="330" y="244" as="targetPoint" />
          </mxGeometry>
        </mxCell>
        <mxCell id="MHfgRp8hCxY6G898PhNS-21" value="" style="shape=flexArrow;endArrow=classic;html=1;rounded=0;fontSize=24;exitX=0;exitY=0.5;exitDx=0;exitDy=0;entryX=0.703;entryY=0.5;entryDx=0;entryDy=0;entryPerimeter=0;" edge="1" parent="1" source="MHfgRp8hCxY6G898PhNS-4" target="MHfgRp8hCxY6G898PhNS-10">
          <mxGeometry width="50" height="50" relative="1" as="geometry">
            <mxPoint x="180" y="130" as="sourcePoint" />
            <mxPoint x="292.0640000000001" y="130" as="targetPoint" />
          </mxGeometry>
        </mxCell>
        <mxCell id="MHfgRp8hCxY6G898PhNS-28" value="" style="curved=1;endArrow=classic;html=1;rounded=0;fontSize=24;entryX=0;entryY=0.5;entryDx=0;entryDy=0;entryPerimeter=0;" edge="1" parent="1" target="MHfgRp8hCxY6G898PhNS-14">
          <mxGeometry width="50" height="50" relative="1" as="geometry">
            <mxPoint x="190" y="205" as="sourcePoint" />
            <mxPoint x="240" y="155" as="targetPoint" />
            <Array as="points">
              <mxPoint x="190" y="155" />
            </Array>
          </mxGeometry>
        </mxCell>
        <mxCell id="MHfgRp8hCxY6G898PhNS-34" value="" style="curved=1;endArrow=classic;html=1;rounded=0;fontSize=24;exitX=0.5;exitY=0;exitDx=0;exitDy=0;entryX=1;entryY=0.5;entryDx=0;entryDy=0;entryPerimeter=0;" edge="1" parent="1" source="MHfgRp8hCxY6G898PhNS-4" target="MHfgRp8hCxY6G898PhNS-14">
          <mxGeometry width="50" height="50" relative="1" as="geometry">
            <mxPoint x="640" y="205" as="sourcePoint" />
            <mxPoint x="690" y="155" as="targetPoint" />
            <Array as="points">
              <mxPoint x="640" y="155" />
            </Array>
          </mxGeometry>
        </mxCell>
        <mxCell id="MHfgRp8hCxY6G898PhNS-35" value="&lt;b&gt;利用申請&lt;/b&gt;" style="text;html=1;align=center;verticalAlign=middle;resizable=0;points=[];autosize=1;strokeColor=none;fillColor=none;fontSize=24;" vertex="1" parent="1">
          <mxGeometry x="278" y="200" width="110" height="30" as="geometry" />
        </mxCell>
        <mxCell id="MHfgRp8hCxY6G898PhNS-36" value="&lt;b style=&quot;&quot;&gt;&lt;font style=&quot;font-size: 24px;&quot;&gt;利用可能&lt;br&gt;時間登録&lt;br&gt;&lt;/font&gt;&lt;/b&gt;" style="text;html=1;align=center;verticalAlign=middle;resizable=0;points=[];autosize=1;strokeColor=none;fillColor=none;fontSize=24;" vertex="1" parent="1">
          <mxGeometry x="440" y="170" width="110" height="60" as="geometry" />
        </mxCell>
        <mxCell id="MHfgRp8hCxY6G898PhNS-37" value="&lt;b&gt;NFCを用いた鍵&lt;/b&gt;" style="text;html=1;align=center;verticalAlign=middle;resizable=0;points=[];autosize=1;strokeColor=none;fillColor=none;fontSize=24;" vertex="1" parent="1">
          <mxGeometry x="323.13" y="10" width="180" height="30" as="geometry" />
        </mxCell>
      </root>
    </mxGraphModel>
  </diagram>
</mxfile>
